<?xml version="1.0" encoding="UTF-8" standalone="no"?>
<svg
   width="24"
   height="24"
   viewBox="0 0 24 24"
   fill="none"
   version="1.1"
   id="svg1"
   sodipodi:docname="yoga.svg"
   inkscape:version="1.4.2 (f4327f4, 2025-05-13)"
   xmlns:inkscape="http://www.inkscape.org/namespaces/inkscape"
   xmlns:sodipodi="http://sodipodi.sourceforge.net/DTD/sodipodi-0.dtd"
   xmlns="http://www.w3.org/2000/svg"
   xmlns:svg="http://www.w3.org/2000/svg">
  <sodipodi:namedview
     id="namedview1"
     pagecolor="#ffffff"
     bordercolor="#000000"
     borderopacity="0.25"
     inkscape:showpageshadow="2"
     inkscape:pageopacity="0.0"
     inkscape:pagecheckerboard="0"
     inkscape:deskcolor="#d1d1d1"
     showgrid="false"
     inkscape:zoom="22.627417"
     inkscape:cx="4.9276504"
     inkscape:cy="11.026446"
     inkscape:window-width="2560"
     inkscape:window-height="1377"
     inkscape:window-x="1912"
     inkscape:window-y="-8"
     inkscape:window-maximized="1"
     inkscape:current-layer="svg1" />
  <defs
     id="defs1">
    <clipPath
       id="clip0_18071_1649">
      <rect
         width="24"
         height="24"
         fill="white"
         id="rect1" />
    </clipPath>
  </defs>
  <g
     transform="matrix(0.00386524,0,0,-0.00386524,0.22381117,20.703733)"
     fill="#000000"
     stroke="none"
     id="g4">
    <path
       d="M 2491,3937 C 2175,3904 2109,3854 1258,3003 817,2562 483,2212 453,2158 101,1545 444,781 1152,600 c 146,-38 225,-40 1476,-40 h 1322 l 915,914 c 503,503 915,917 915,920 0,3 -525,6 -1166,6 H 3448 l -78,-80 -78,-80 H 4352 5412 L 4657,1480 3901,720 H 2595 c -1575,0 -1573,0 -1856,280 -520,514 -257,1360 461,1481 715,120 1224,-692 751,-1198 -394,-421 -1115,-181 -1117,373 -3,545 811,673 924,146 65,-306 -289,-516 -493,-294 -96,106 -87,141 85,312 174,172 172,169 78,201 l -73,24 -157,-157 c -207,-206 -209,-357 -8,-523 360,-297 853,85 698,540 -218,642 -1198,441 -1198,-245 0,-559 580,-910 1110,-671 144,65 1494,1375 1623,1576 430,668 -106,1459 -932,1372 z m 311,-157 c 375,-71 605,-344 605,-720 0,-309 -13,-329 -605,-930 l -512,-520 -13,170 c -40,539 -457,889 -1016,854 l -168,-10 509,507 c 649,646 795,725 1200,649 z"
       id="path1" />
  </g>
</svg>
